<svg width="1300" height="1300" viewBox="0 0 1300 1300" fill="none" xmlns="http://www.w3.org/2000/svg">
<path d="M650 1300C290.71 1300 0 1008.86 0 650C0 290.71 291.141 0 650 0C1009.29 0 1300 291.141 1300 650C1300.43 1009.29 1009.29 1300 650 1300Z" fill="#F4DA92"/>
<mask id="mask0_26_635" style="mask-type:alpha" maskUnits="userSpaceOnUse" x="0" y="0" width="1301" height="1300">
<path d="M650 1300C290.71 1300 0 1008.86 0 650C0 290.71 291.141 0 650 0C1009.29 0 1300 291.141 1300 650C1300.43 1009.29 1009.29 1300 650 1300Z" fill="#F7C0B5"/>
</mask>
<g mask="url(#mask0_26_635)">
<path d="M1012.27 1197.33C1009.23 1199.5 1005.77 1201.66 1002.73 1203.83C999.265 1206 996.232 1208.16 992.765 1209.9C989.732 1211.63 987.132 1213.36 984.099 1215.1C983.665 1215.53 983.232 1215.53 982.799 1215.96C972.832 1222.03 962.432 1227.66 952.032 1232.86C948.999 1234.6 945.532 1236.33 942.499 1237.63C942.499 1237.63 942.065 1238.06 941.632 1238.06C938.165 1239.8 934.699 1241.53 931.232 1243.26C924.299 1246.73 916.932 1249.76 909.999 1252.8C906.532 1254.53 902.632 1255.83 899.165 1257.13C895.699 1258.43 891.799 1260.16 888.332 1261.46C884.865 1262.76 880.965 1264.5 877.499 1265.8C877.499 1265.8 877.499 1265.8 877.065 1265.8C873.599 1267.1 869.699 1268.4 866.232 1269.7C858.432 1272.3 850.199 1274.9 842.399 1277.5C839.799 1278.36 836.765 1279.23 834.165 1280.1C825.932 1282.7 817.699 1284.86 809.465 1286.6C806.432 1287.46 803.399 1287.9 799.932 1288.76C792.132 1290.5 783.899 1292.23 776.099 1293.96C774.365 1294.4 773.065 1294.4 771.332 1294.83C768.732 1295.26 765.699 1295.7 763.099 1296.13C759.199 1296.56 755.732 1297.43 751.832 1297.86C750.099 1298.3 748.365 1298.3 746.632 1298.73C744.465 1299.16 741.865 1299.6 739.265 1299.6C732.332 1300.46 724.965 1301.33 718.032 1302.2C715.865 1302.63 713.265 1302.63 711.099 1303.06H710.665C707.632 1303.5 704.599 1303.5 701.565 1303.93C698.532 1304.36 695.499 1304.36 692.465 1304.36C690.732 1304.36 688.565 1304.8 686.832 1304.8C683.365 1304.8 680.332 1305.23 677.299 1305.23C672.965 1305.23 669.065 1305.66 664.732 1305.66C660.399 1305.66 656.499 1305.66 652.165 1305.66C649.132 1305.66 646.099 1305.66 643.065 1305.66C460.632 1303.06 295.965 1225.5 178.965 1102.43C178.965 1102.43 178.965 1102 178.532 1102C191.965 1075.56 241.799 1027.9 293.799 988.465C359.665 938.632 452.832 907.865 452.832 907.865C452.832 907.865 513.932 897.898 740.565 945.132C913.465 981.532 987.132 1129.3 1012.27 1197.33Z" fill="#C99589"/>
<path d="M788.666 1065.16C779.566 1109.8 720.632 1136.23 621.399 1096.36C499.632 1046.96 452.832 907.865 452.832 907.865C446.332 808.198 431.166 722.832 431.166 722.832C571.999 710.698 738.399 875.365 738.399 875.365L757.466 956.832C759.199 963.765 762.665 969.832 767.865 974.165C776.965 989.765 794.732 1036.56 788.666 1065.16Z" fill="#C99589"/>
<path d="M767.865 974.599C685.098 970.265 623.998 958.132 558.565 840.699C614.032 889.665 679.465 908.299 748.365 916.965L757.465 956.832C759.198 964.199 762.665 970.265 767.865 974.599Z" fill="#A56663"/>
<path d="M939.032 452.432C946.832 488.832 950.732 518.298 929.499 615.365C908.265 712.432 948.998 809.498 846.732 898.332C777.832 958.132 657.365 969.398 561.165 903.965C528.665 881.865 498.765 851.098 474.499 810.798C455.432 779.165 433.332 749.265 408.632 721.965C374.399 684.698 333.232 609.732 353.599 477.132C386.532 261.332 600.165 236.632 726.265 260.465C852.365 284.298 917.799 356.232 939.032 452.432Z" fill="#C99589"/>
<path d="M524.332 621.865C524.332 621.865 510.898 556.865 447.632 564.665C393.032 571.598 373.965 702.465 497.898 738.865" fill="#C99589"/>
<path d="M493.999 679.498C493.999 679.498 478.399 669.532 480.132 652.198C482.732 631.832 480.132 619.265 470.599 615.365C446.766 605.398 441.999 633.132 442.866 636.598" stroke="#423232" stroke-width="13" stroke-miterlimit="10" stroke-linecap="round" stroke-linejoin="round"/>
<path d="M824.631 721.532C824.631 721.532 841.098 722.398 856.698 703.765C865.365 693.365 872.731 680.365 867.965 676.465C863.198 672.132 784.765 684.265 779.565 694.665C774.365 705.065 804.698 721.532 824.631 721.532Z" fill="#A56663"/>
<path d="M837.632 575.932C837.632 575.932 838.499 617.098 864.932 663.032C876.632 683.398 858.865 716.765 820.299 722.398" stroke="#423232" stroke-width="13" stroke-miterlimit="10" stroke-linecap="round" stroke-linejoin="round"/>
<path d="M1166.53 1467.78L68.8993 1443.51C57.6327 1167.05 171.166 1021.01 215.799 992.414C299.433 938.247 408.199 922.214 459.333 917.447C472.333 949.514 521.733 1054.81 624.433 1096.41C723.666 1136.71 782.599 1109.85 791.699 1065.21C797.333 1036.61 779.566 989.814 770.466 974.647C765.266 970.314 761.799 963.814 760.066 957.314L756.599 943.014C763.966 941.281 771.333 939.547 778.699 936.947C960.266 957.314 1033.93 1006.71 1077.27 1091.21C1121.9 1178.31 1166.53 1467.78 1166.53 1467.78Z" fill="#474E51"/>
<path d="M261.3 1466.05C261.3 1466.05 255.666 1325.65 250.033 1299.65" stroke="#544D4D" stroke-width="13" stroke-miterlimit="10" stroke-linecap="round" stroke-linejoin="round"/>
<path d="M1029.17 1466.05C1029.17 1466.05 1016.17 1378.95 1016.17 1363.78C1016.17 1349.05 1027.43 1300.51 1029.17 1258.05" stroke="#544D4D" stroke-width="13" stroke-miterlimit="10" stroke-linecap="round" stroke-linejoin="round"/>
<path d="M685.533 1189.15L669.933 1512.41C669.933 1512.41 807.299 1606.01 807.299 1603.41C807.299 1600.81 872.299 1487.28 872.299 1487.28L770.899 1176.15C770.899 1176.15 757.899 1189.58 685.533 1189.15Z" fill="#D85656"/>
<path d="M716.732 1085.15C716.732 1085.15 657.366 1141.05 649.566 1155.78C641.766 1170.51 682.932 1193.91 682.932 1193.91C682.932 1193.91 749.232 1207.78 779.132 1180.91C779.132 1180.91 796.032 1162.28 792.566 1144.51C789.532 1127.18 716.732 1085.15 716.732 1085.15Z" fill="#EA6363"/>
<path d="M446.766 866.314L452.399 865.014C468.433 916.581 570.266 1038.35 716.733 1085.15L625.733 1199.98C619.666 1207.78 608.833 1209.08 601.033 1203.45C563.766 1175.71 464.099 1094.25 423.366 990.247C414.699 968.581 412.966 944.747 417.3 922.214L422.933 891.447C425.099 878.881 434.633 868.914 446.766 866.314Z" fill="white"/>
<path d="M838.066 1160.55C835.466 1174.85 818.566 1180.48 807.732 1170.51L716.299 1085.15C716.299 1085.15 769.599 1034.45 756.599 942.581C774.366 938.681 791.266 933.047 806.866 925.681C807.299 926.547 813.366 938.247 820.299 957.747C835.032 998.047 853.666 1072.15 838.066 1160.55Z" fill="white"/>
<path d="M683.943 619.439C673.543 619.006 665.743 610.339 666.61 599.939L667.043 587.806C667.476 577.406 676.143 569.606 686.543 570.473C696.943 570.906 704.743 579.573 703.876 589.973L703.443 602.106C703.01 612.073 694.343 619.873 683.943 619.439Z" fill="#423232"/>
<path d="M866.375 625.939C856.842 625.506 849.475 617.272 849.909 607.739L850.342 596.472C850.775 586.939 859.009 579.572 868.542 580.006C878.075 580.439 885.442 588.672 885.009 598.206L884.575 609.472C884.142 619.006 875.909 626.372 866.375 625.939Z" fill="#423232"/>
<path d="M725.977 594.306C725.977 594.306 714.71 578.273 695.21 575.239C679.177 572.639 661.41 580.439 658.81 589.539" stroke="#423232" stroke-width="13" stroke-miterlimit="10" stroke-linecap="round" stroke-linejoin="round"/>
<path d="M853.809 598.206C853.809 598.206 853.809 584.339 873.743 584.339C890.209 584.339 897.143 599.506 897.143 599.506" stroke="#423232" stroke-width="13" stroke-miterlimit="10" stroke-linecap="round" stroke-linejoin="round"/>
<path d="M743.743 524.539C752.843 527.573 761.943 519.339 760.209 509.373C759.343 504.173 757.176 498.973 752.843 495.073C739.843 483.373 686.109 472.973 653.609 488.139C625.009 502.006 702.143 510.673 743.743 524.539Z" fill="#423232"/>
<path d="M873.308 531.473C865.941 534.073 858.141 526.273 859.441 517.173C859.874 512.406 861.608 507.639 865.074 504.173C875.474 493.773 911.008 485.539 933.541 501.573C953.041 515.006 907.108 518.906 873.308 531.473Z" fill="#423232"/>
<path d="M820.997 777.919C820.997 777.919 765.964 752.352 739.531 766.219" stroke="#423232" stroke-width="13" stroke-miterlimit="10" stroke-linecap="round" stroke-linejoin="round"/>
</g>
</svg>
